<?xml version="1.0" encoding="UTF-8"?>
<svg width="760" height="470" xmlns="http://www.w3.org/2000/svg" viewBox="0 0 760 470" style="width:100%; height:auto" aria-label="Radix-9 kernel circuit diagram">
  <rect x="0" y="0" width="760" height="470" fill="#F9F8F8"></rect>
            <defs>
              <marker id="arr9" viewBox="0 0 10 10" refX="9" refY="5" markerWidth="7" markerHeight="7" orient="auto">
                <path d="M0,0 L10,5 L0,10 z" fill="#272838"></path>
              </marker>
              <marker id="arr9y" viewBox="0 0 10 10" refX="9" refY="5" markerWidth="7" markerHeight="7" orient="auto">
                <path d="M0,0 L10,5 L0,10 z" fill="#EB9486"></path>
              </marker>
              <pattern id="mmhatch" width="8" height="8" patternUnits="userSpaceOnUse" patternTransform="rotate(45)">
                <rect width="8" height="8" fill="#272838"></rect>
                <line x1="0" y1="0" x2="0" y2="8" stroke="#F3DE8A" stroke-width="1"></line>
              </pattern>
            </defs>

            
            <g font-family="JetBrains Mono" font-size="11" font-weight="700" fill="#272838" letter-spacing="0.1em">
              <text x="14" y="64">INPUT</text>
              <text x="14" y="192">U = B²</text>
              <text x="14" y="312">V</text>
              <text x="14" y="420">OUT</text>
            </g>

            
            <rect x="88" y="40" width="56" height="44" fill="#F9F8F8" stroke="#272838" stroke-width="1.5"></rect>
            <text x="116" y="60" text-anchor="middle" font-family="JetBrains Mono" font-size="12" font-weight="700" fill="#272838">B</text>
            <text x="116" y="76" text-anchor="middle" font-family="JetBrains Mono" font-size="10" fill="#272838">(input)</text>

            <rect x="88" y="400" width="56" height="44" fill="#F9F8F8" stroke="#272838" stroke-width="1.5"></rect>
            <text x="116" y="420" text-anchor="middle" font-family="JetBrains Mono" font-size="12" font-weight="700" fill="#272838">I</text>
            <text x="116" y="436" text-anchor="middle" font-family="JetBrains Mono" font-size="10" fill="#272838">(identity)</text>

            
            <line x1="144" y1="62" x2="720" y2="62" stroke="#272838" stroke-width="1" stroke-dasharray="2 3"></line>

            
            
            <line x1="180" y1="62" x2="180" y2="128" stroke="#272838" stroke-width="1.5" marker-end="url(#arr9)"></line>
            <line x1="230" y1="62" x2="230" y2="128" stroke="#272838" stroke-width="1.5" marker-end="url(#arr9)"></line>
            <text x="158" y="108" font-size="10" fill="#272838">B</text>
            <text x="236" y="108" font-size="10" fill="#272838">B</text>

            
            <rect x="148" y="130" width="118" height="56" fill="url(#mmhatch)" stroke="#272838" stroke-width="1.8"></rect>
            <text x="207" y="152" text-anchor="middle" font-family="JetBrains Mono" font-size="11" font-weight="700" fill="#F3DE8A">MM1 &amp;nbsp;· GEMM</text>
            <text x="207" y="170" text-anchor="middle" font-family="JetBrains Mono" font-size="13" fill="#F9F8F8">U := B · B</text>

            
            <line x1="207" y1="186" x2="207" y2="212" stroke="#272838" stroke-width="1.5" marker-end="url(#arr9)"></line>
            <line x1="100" y1="220" x2="720" y2="220" stroke="#272838" stroke-width="1" stroke-dasharray="2 3"></line>
            <circle cx="207" cy="220" r="3" fill="#272838"></circle>

            
            <line x1="300" y1="62" x2="300" y2="246" stroke="#272838" stroke-width="1.5"></line>
            <line x1="320" y1="220" x2="320" y2="246" stroke="#272838" stroke-width="1.5"></line>
            <circle cx="300" cy="62" r="3" fill="#272838"></circle>
            <circle cx="320" cy="220" r="3" fill="#272838"></circle>
            <text x="262" y="240" font-size="10" fill="#272838">B</text>
            <text x="324" y="240" font-size="10" fill="#272838">2U</text>

            <rect x="278" y="246" width="64" height="26" rx="13" fill="#F9F8F8" stroke="#272838" stroke-width="1.5"></rect>
            <text x="310" y="264" text-anchor="middle" font-family="JetBrains Mono" font-size="13" font-weight="700" fill="#272838">+</text>
            <text x="310" y="288" text-anchor="middle" font-family="JetBrains Mono" font-size="9" fill="#272838" letter-spacing="0.1em">ADDER</text>

            
            <line x1="310" y1="272" x2="310" y2="310" stroke="#272838" stroke-width="1.5"></line>
            <line x1="310" y1="310" x2="410" y2="310" stroke="#272838" stroke-width="1.5"></line>
            <line x1="410" y1="310" x2="410" y2="338" stroke="#272838" stroke-width="1.5" marker-end="url(#arr9)"></line>
            <text x="326" y="304" font-size="10" fill="#272838">(B+2U)</text>

            
            <line x1="380" y1="220" x2="380" y2="338" stroke="#272838" stroke-width="1.5" marker-end="url(#arr9)"></line>
            <circle cx="380" cy="220" r="3" fill="#272838"></circle>
            <text x="356" y="330" font-size="10" fill="#272838">U</text>

            
            <rect x="338" y="340" width="118" height="56" fill="url(#mmhatch)" stroke="#272838" stroke-width="1.8"></rect>
            <text x="397" y="362" text-anchor="middle" font-family="JetBrains Mono" font-size="11" font-weight="700" fill="#F3DE8A">MM2 &amp;nbsp;· GEMM</text>
            <text x="397" y="380" text-anchor="middle" font-family="JetBrains Mono" font-size="13" fill="#F9F8F8">V := U·(B+2U)</text>

            
            <line x1="397" y1="396" x2="397" y2="308" stroke="none"></line>
            
            <line x1="397" y1="340" x2="397" y2="312" stroke="none"></line>
            
            <path d="M 456 368 Q 490 368 490 312" fill="none" stroke="#272838" stroke-width="1.5" marker-end="url(#arr9)"></path>
            <text x="468" y="344" font-size="10" fill="#272838">V = B³+2B⁴</text>
            <line x1="490" y1="312" x2="720" y2="312" stroke="#272838" stroke-width="1" stroke-dasharray="2 3"></line>
            <circle cx="490" cy="312" r="3" fill="#272838"></circle>

            
            
            <g>
              
              <line x1="560" y1="62" x2="560" y2="108" stroke="#272838" stroke-width="1.5"></line>
              <circle cx="560" cy="62" r="3" fill="#272838"></circle>
              <text x="564" y="76" font-size="9" fill="#272838">3/20·B</text>

              <line x1="580" y1="220" x2="580" y2="108" stroke="#272838" stroke-width="1.5"></line>
              <circle cx="580" cy="220" r="3" fill="#272838"></circle>
              <text x="584" y="230" font-size="9" fill="#272838">2U</text>

              <line x1="600" y1="312" x2="600" y2="108" stroke="#272838" stroke-width="1.5"></line>
              <circle cx="600" cy="312" r="3" fill="#272838"></circle>
              <text x="604" y="304" font-size="9" fill="#272838">V</text>

              <rect x="548" y="108" width="74" height="30" rx="4" fill="#EB9486" stroke="#272838" stroke-width="1.5"></rect>
              <text x="585" y="128" text-anchor="middle" font-family="JetBrains Mono" font-size="13" font-weight="700" fill="#272838">P = Σ</text>
              <line x1="585" y1="138" x2="585" y2="200" stroke="#EB9486" stroke-width="2.5" marker-end="url(#arr9y)"></line>
            </g>

            
            <g>
              <line x1="680" y1="62" x2="680" y2="108" stroke="#272838" stroke-width="1.5"></line>
              <circle cx="680" cy="62" r="3" fill="#272838"></circle>
              <text x="684" y="76" font-size="9" fill="#272838">11/40·B</text>

              <line x1="700" y1="220" x2="700" y2="108" stroke="#272838" stroke-width="1.5"></line>
              <circle cx="700" cy="220" r="3" fill="#272838"></circle>
              <text x="704" y="214" font-size="9" fill="#272838">−⅛U</text>

              <line x1="720" y1="312" x2="720" y2="108" stroke="#272838" stroke-width="1.5"></line>
              <circle cx="720" cy="312" r="3" fill="#272838"></circle>
              <text x="688" y="302" font-size="9" fill="#272838" text-anchor="end">¼V</text>

              <rect x="668" y="108" width="74" height="30" rx="4" fill="#EB9486" stroke="#272838" stroke-width="1.5"></rect>
              <text x="705" y="128" text-anchor="middle" font-family="JetBrains Mono" font-size="13" font-weight="700" fill="#272838">Q = Σ</text>
              <line x1="705" y1="138" x2="705" y2="200" stroke="#EB9486" stroke-width="2.5" marker-end="url(#arr9y)"></line>
            </g>

            
            <rect x="528" y="200" width="234" height="56" fill="url(#mmhatch)" stroke="#272838" stroke-width="1.8"></rect>
            <text x="645" y="222" text-anchor="middle" font-family="JetBrains Mono" font-size="11" font-weight="700" fill="#F3DE8A">MM3 &amp;nbsp;· GEMM</text>
            <text x="645" y="240" text-anchor="middle" font-family="JetBrains Mono" font-size="13" fill="#F9F8F8">W := P · Q &amp;nbsp; ⇒ &amp;nbsp; B⁵…B⁸</text>

            
            <line x1="645" y1="256" x2="645" y2="400" stroke="#272838" stroke-width="1.5" marker-end="url(#arr9)"></line>

            
            <rect x="168" y="400" width="496" height="44" fill="#272838" stroke="#272838"></rect>
            <text x="186" y="420" font-family="JetBrains Mono" font-size="11" font-weight="700" fill="#F3DE8A">Σ</text>
            <text x="210" y="421" font-family="JetBrains Mono" font-size="12" fill="#F9F8F8">T₉(B) = W + I + B + (767/800)·U + (15/32)·V</text>
            <text x="210" y="438" font-family="JetBrains Mono" font-size="10" fill="#F9F8F8" opacity="0.7">= I + B + B² + B³ + B⁴ + B⁵ + B⁶ + B⁷ + B⁸</text>

            
            <line x1="144" y1="422" x2="168" y2="422" stroke="#272838" stroke-width="1.5" marker-end="url(#arr9)"></line>
            
            <line x1="250" y1="220" x2="250" y2="400" stroke="#7E7F9A" stroke-width="1" stroke-dasharray="3 3"></line>
            <text x="254" y="394" font-size="9" fill="#7E7F9A">767/800 U</text>
            <line x1="460" y1="312" x2="460" y2="400" stroke="#7E7F9A" stroke-width="1" stroke-dasharray="3 3"></line>
            <text x="464" y="394" font-size="9" fill="#7E7F9A">15/32 V</text>
            <line x1="116" y1="84" x2="116" y2="400" stroke="none"></line>
            <path d="M 116 84 L 116 378 Q 116 392 130 392 L 168 392" stroke="#7E7F9A" stroke-width="1" stroke-dasharray="3 3" fill="none"></path>
            <text x="120" y="376" font-size="9" fill="#7E7F9A">B</text>

            
            <g transform="translate(478, 20)">
              <rect x="0" y="0" width="14" height="14" fill="url(#mmhatch)" stroke="#272838"></rect>
              <text x="20" y="11" font-size="10" fill="#272838">MM (GEMM, cost×1)</text>
              <rect x="150" y="0" width="14" height="14" fill="#EB9486" stroke="#272838"></rect>
              <text x="170" y="11" font-size="10" fill="#272838">linear comb. (free)</text>
            </g>
          </svg>