<?xml version="1.0" encoding="UTF-8"?>
<svg width="320" height="140" xmlns="http://www.w3.org/2000/svg" viewBox="0 0 320 140" style="width:100%; margin-top:4px">
  <rect x="0" y="0" width="320" height="140" fill="#F9F8F8"></rect>
          
          <line x1="28" y1="20" x2="28" y2="120" stroke="#272838" stroke-width="1"></line>
          <line x1="28" y1="120" x2="310" y2="120" stroke="#272838" stroke-width="1"></line>
          
          <line x1="28" y1="70" x2="310" y2="70" stroke="#7E7F9A" stroke-width="1" stroke-dasharray="3 3"></line>
          <text x="312" y="72" font-size="9" fill="#7E7F9A">q=1</text>

          
          <path d="M 28 115 Q 120 113 200 100 Q 250 85 280 60 L 310 20" stroke="#EB9486" stroke-width="1.5" fill="none" stroke-dasharray="4 3"></path>
          
          <path d="M 28 116 Q 120 114 200 105 Q 260 92 285 70 L 310 40" stroke="#272838" stroke-width="2" fill="none"></path>

          
          <circle cx="285" cy="70" r="3.5" fill="#272838"></circle>
          <text x="208" y="60" font-size="10" font-weight="700" fill="#272838">ρ = 0.984</text>

          
          <text x="28" y="135" font-size="9" fill="#272838">0.94</text>
          <text x="294" y="135" font-size="9" fill="#272838">0.99</text>
          <text x="8" y="20" font-size="9" fill="#272838">1.4</text>
          <text x="8" y="122" font-size="9" fill="#272838">0.4</text>

          
          <line x1="180" y1="128" x2="200" y2="128" stroke="#272838" stroke-width="2"></line>
          <text x="204" y="131" font-size="9" fill="#272838">certified</text>
          <line x1="248" y1="128" x2="268" y2="128" stroke="#EB9486" stroke-width="1.5" stroke-dasharray="4 3"></line>
          <text x="272" y="131" font-size="9" fill="#272838">estimated</text>
        </svg>