<?xml version="1.0" encoding="UTF-8"?>
<svg width="340" height="150" xmlns="http://www.w3.org/2000/svg" viewBox="0 0 340 150" style="width:100%">
  <rect x="0" y="0" width="340" height="150" fill="#F9F8F8"></rect>
            
            <line x1="30" y1="15" x2="30" y2="125" stroke="#272838"></line>
            <line x1="30" y1="125" x2="330" y2="125" stroke="#272838"></line>
            <text x="8" y="19" font-size="9" fill="#272838">‖Rₙ‖</text>
            <text x="310" y="140" font-size="9" fill="#272838">δ</text>

            
            <path d="M 30 100 C 100 95 180 88 260 55 L 330 30" stroke="#EB9486" stroke-width="1.8" fill="none" stroke-dasharray="5 4"></path>
            <text x="230" y="45" font-size="9" font-weight="700" fill="#EB9486">Crouzeix bound</text>

            
            <path d="M 30 118 L 100 117 L 170 114 L 240 110 L 330 105" stroke="#272838" stroke-width="1.8" fill="none"></path>
            <circle cx="30" cy="118" r="2.5" fill="#272838"></circle>
            <circle cx="100" cy="117" r="2.5" fill="#272838"></circle>
            <circle cx="170" cy="114" r="2.5" fill="#272838"></circle>
            <circle cx="240" cy="110" r="2.5" fill="#272838"></circle>
            <circle cx="330" cy="105" r="2.5" fill="#272838"></circle>
            <text x="40" y="112" font-size="9" fill="#272838">normal</text>

            
            <path d="M 30 118 L 100 110 L 170 99 L 240 82 L 330 55" stroke="#7E7F9A" stroke-width="1.8" fill="none"></path>
            <circle cx="100" cy="110" r="2.5" fill="#7E7F9A"></circle>
            <circle cx="170" cy="99" r="2.5" fill="#7E7F9A"></circle>
            <circle cx="240" cy="82" r="2.5" fill="#7E7F9A"></circle>
            <circle cx="330" cy="55" r="2.5" fill="#7E7F9A"></circle>
            <text x="200" y="78" font-size="9" fill="#7E7F9A">nonnormal (↑ superdiag)</text>

            <text x="160" y="145" font-size="9" fill="#272838" text-anchor="middle">the bound is correctly ordered: tightens with nonnormality</text>
          </svg>